<?xml version="1.0" standalone="no"?>
<!DOCTYPE svg PUBLIC "-//W3C//DTD SVG 20010904//EN"
 "http://www.w3.org/TR/2001/REC-SVG-20010904/DTD/svg10.dtd">
<svg version="1.0" xmlns="http://www.w3.org/2000/svg"
 width="799.000000pt" height="799.000000pt" viewBox="0 0 799.000000 799.000000"
 preserveAspectRatio="xMidYMid meet">
<metadata>
Created by potrace 1.14, written by Peter Selinger 2001-2017
</metadata>
<g transform="translate(0.000000,799.000000) scale(0.100000,-0.100000)"
fill="#000000" stroke="none">
<path d="M2698 7985 c-2 -1 -34 -5 -73 -8 -78 -7 -261 -40 -345 -64 -541 -149
-962 -440 -1275 -880 -169 -237 -333 -651 -371 -933 -2 -19 -7 -46 -9 -60 -20
-101 -27 -471 -13 -620 15 -145 50 -331 84 -447 10 -32 19 -62 20 -68 1 -5 15
-48 32 -95 74 -213 171 -407 296 -595 53 -80 94 -135 251 -339 42 -55 216
-267 225 -276 3 -3 48 -54 100 -115 52 -60 99 -115 105 -121 5 -6 48 -53 95
-105 190 -210 476 -499 725 -734 81 -77 158 -149 169 -160 12 -11 64 -58 116
-105 52 -47 102 -92 110 -100 8 -8 33 -30 55 -49 22 -19 72 -62 110 -96 64
-57 326 -287 505 -444 41 -36 88 -78 105 -93 16 -14 39 -35 51 -45 144 -124
506 -477 604 -589 97 -109 202 -247 268 -352 46 -74 131 -259 157 -342 41
-132 45 -136 39 -30 -5 101 -7 122 -18 185 -97 557 -436 1161 -985 1754 -18
20 -149 153 -290 296 -256 261 -380 390 -500 520 -35 39 -83 90 -105 115 -57
62 -292 333 -346 400 -25 30 -53 64 -62 75 -126 151 -360 468 -479 650 -322
489 -518 953 -556 1310 -9 89 -10 289 -1 377 23 234 130 537 256 729 65 99 75
113 121 169 222 268 524 467 858 564 207 60 351 80 578 80 231 0 416 -25 661
-90 219 -58 521 -180 738 -299 65 -36 120 -64 121 -63 6 6 -184 226 -265 308
-276 275 -544 463 -860 602 -281 124 -528 178 -832 183 -92 2 -168 2 -170 0z"/>
<path d="M5852 6898 c-225 -17 -476 -105 -679 -240 -147 -97 -327 -258 -431
-386 -50 -61 -65 -85 -39 -64 25 21 256 132 337 163 125 46 265 86 335 95 17
2 36 6 43 9 18 6 184 18 257 18 358 0 690 -154 901 -417 123 -153 189 -302
232 -521 3 -16 6 -91 6 -165 -1 -215 -48 -387 -179 -645 -95 -187 -241 -417
-373 -585 -49 -62 -206 -255 -212 -260 -3 -3 -18 -21 -34 -40 -75 -91 -278
-309 -496 -530 -214 -217 -285 -295 -386 -426 -271 -348 -421 -678 -449 -989
-7 -76 4 -78 24 -5 31 111 110 247 225 390 61 75 258 277 352 360 28 25 83 74
122 109 39 35 82 72 94 83 55 48 154 134 168 148 9 8 45 40 81 70 75 64 62 52
180 160 410 372 799 781 1016 1068 32 42 66 86 76 96 38 43 131 193 179 288
79 159 141 359 165 533 9 71 10 361 1 425 -34 241 -117 466 -237 640 -138 202
-309 352 -526 460 -207 104 -366 145 -620 163 -16 2 -76 -1 -133 -5z"/>
</g>
</svg>
